<?xml version="1.0" encoding="UTF-8"?>
<svg id="Layer_1" data-name="Layer 1" xmlns="http://www.w3.org/2000/svg" xmlns:xlink="http://www.w3.org/1999/xlink" viewBox="0 0 645.7 544.71">
  <defs>
    <style>
      .cls-1 {
        fill: url(#New_Gradient_Swatch_1-2);
      }

      .cls-2 {
        fill: url(#New_Gradient_Swatch_1-3);
      }

      .cls-3 {
        fill: url(#New_Gradient_Swatch_1-5);
      }

      .cls-4 {
        fill: url(#New_Gradient_Swatch_1-4);
      }

      .cls-5 {
        fill: url(#linear-gradient);
      }

      .cls-6 {
        fill: url(#New_Gradient_Swatch_1);
      }
    </style>
    <linearGradient id="New_Gradient_Swatch_1" data-name="New Gradient Swatch 1" x1="79.11" y1="600.69" x2="79.11" y2="399.88" gradientUnits="userSpaceOnUse">
      <stop offset="0" stop-color="#ebdaa8"/>
      <stop offset=".14" stop-color="#e7d9a9"/>
      <stop offset=".28" stop-color="#dbd9ae"/>
      <stop offset=".42" stop-color="#c7d7b6"/>
      <stop offset=".55" stop-color="#abd6c1"/>
      <stop offset=".69" stop-color="#87d4d0"/>
      <stop offset=".83" stop-color="#5ad1e2"/>
      <stop offset=".97" stop-color="#27cef7"/>
      <stop offset="1" stop-color="#1acefd"/>
    </linearGradient>
    <linearGradient id="New_Gradient_Swatch_1-2" data-name="New Gradient Swatch 1" x1="212.42" y1="600.69" x2="212.42" y2="399.88" xlink:href="#New_Gradient_Swatch_1"/>
    <linearGradient id="New_Gradient_Swatch_1-3" data-name="New Gradient Swatch 1" x1="318.48" y1="600.69" x2="318.48" y2="399.88" xlink:href="#New_Gradient_Swatch_1"/>
    <linearGradient id="New_Gradient_Swatch_1-4" data-name="New Gradient Swatch 1" x1="420.72" y1="600.69" x2="420.72" y2="399.88" xlink:href="#New_Gradient_Swatch_1"/>
    <linearGradient id="New_Gradient_Swatch_1-5" data-name="New Gradient Swatch 1" x1="556.82" y1="600.69" x2="556.82" y2="399.88" xlink:href="#New_Gradient_Swatch_1"/>
    <linearGradient id="linear-gradient" x1="319.73" y1="351.15" x2="319.73" y2="18.36" gradientUnits="userSpaceOnUse">
      <stop offset="0" stop-color="#f0daa2"/>
      <stop offset=".13" stop-color="#ecd9a3"/>
      <stop offset=".26" stop-color="#e0d9a8"/>
      <stop offset=".39" stop-color="#ccd8af"/>
      <stop offset=".52" stop-color="#b0d8ba"/>
      <stop offset=".65" stop-color="#8cd7c8"/>
      <stop offset=".78" stop-color="#5fd5d9"/>
      <stop offset=".9" stop-color="#2cd4ed"/>
      <stop offset="1" stop-color="#00d3ff"/>
    </linearGradient>
  </defs>
  <g>
    <path class="cls-6" d="M64.75,495.78v-85.5h-4.42c-14.92,0-26.15,1.98-36.83,15.81l5.16-32.87c9.39,2.16,20.99,2.34,31.86,2.34h37.01c10.86,0,22.46-.18,31.85-2.34l5.34,32.87c-10.87-13.83-22.1-15.81-36.83-15.81h-4.6v85.5c0,9.34,2.21,17.42,11.05,23.89h-50.82c9.02-6.47,11.23-14.55,11.23-23.89Z"/>
    <path class="cls-1" d="M158.01,495.78v-76.34c0-9.34-2.21-17.42-11.05-23.89h50.82c-9.02,6.47-11.05,14.55-11.05,23.89v28.92h51.37v-28.92c0-9.34-2.21-17.42-11.05-23.89h50.82c-9.02,6.47-11.05,14.55-11.05,23.89v76.34c0,9.34,2.03,17.42,11.05,23.89h-50.82c8.84-6.47,11.05-14.55,11.05-23.89v-31.97h-51.37v31.97c0,9.34,2.03,17.42,11.05,23.89h-50.82c8.84-6.47,11.05-14.55,11.05-23.89Z"/>
    <path class="cls-2" d="M304.12,495.78v-76.34c0-9.34-2.21-17.42-11.05-23.89h50.82c-9.02,6.47-11.05,14.55-11.05,23.89v76.34c0,9.34,2.03,17.42,11.05,23.89h-50.82c8.84-6.47,11.05-14.55,11.05-23.89Z"/>
    <path class="cls-4" d="M368.06,495.78v-76.34c0-9.52-2.21-17.42-10.87-23.89h42.72c6.08,27.84,42.35,61.79,57.63,93.41v-63.41c0-13.83-4.97-23.17-19.52-30h46.22c-8.84,6.47-11.05,14.55-11.05,23.89v100.23h-31.3c-6.26-28.38-43.46-62.87-58-95.38v65.2c0,14.19,4.97,23.53,19.52,30.18h-46.22c8.65-6.47,10.87-14.55,10.87-23.89Z"/>
    <path class="cls-3" d="M506.74,495.78v-76.34c0-9.34-2.21-17.42-11.05-23.89h50.82c-9.02,6.47-11.05,14.55-11.05,23.89v40.6c21.73-21.91,42.72-44.01,42.72-54.61,0-4.31-2.02-7.36-5.15-9.88h41.43c-14.55,13.65-28.36,27.84-48.61,52.27,21.18,7.9,30.93,25.33,37.75,48.5,3.31,10.78,6.26,17.78,14.36,23.35h-46.4c4.05-3.05,5.89-8.26,5.71-15.09-.74-21.56-14.18-38.98-34.99-38.98-2.39,0-4.79.18-6.81.72v29.46c0,9.34,2.03,17.42,11.05,23.89h-50.82c8.84-6.47,11.05-14.55,11.05-23.89Z"/>
  </g>
  <g>
    <path class="cls-5" d="M467.64,253.76V115.75c0-10.14-5.41-19.52-14.2-24.59l-119.52-69c-8.78-5.07-19.61-5.07-28.39,0l-119.52,69c-8.78,5.07-14.2,14.44-14.2,24.59v138.01c0,10.14,5.41,19.52,14.2,24.59l119.52,69c8.78,5.07,19.61,5.07,28.39,0l119.52-69c8.78-5.07,14.2-14.44,14.2-24.59Z"/>
    <path d="M404.33,202l18.15-5.88c-16.96-74.52-39.99-119.51-103.55-121.72-39.49,0-73.86,24.46-86.95,63.86-13.1,39.39,19.53,81.89,29.25,104.7,7.44,17.44,1.91,35.98-1.11,43.74-.7,1.81.64,3.75,2.58,3.75h92.74c1.53,0,2.77-1.24,2.76-2.77l-.07-23.28,28.06-.25c14.22,0,25.14-12.6,23.13-26.67l-5-35.48ZM333.99,96.36c7.88.84,15.22,3.04,21.66,6.62,2.84,1.58,4.95,4.33,5.93,7.51l.02.06c.86,2.78-.6,5.7-3.25,6.52l-15.37,4.73c-2.65.82-5.49-.78-6.35-3.56l-5.58-18.12c-.62-2.02.92-3.98,2.94-3.76ZM303.02,99.36c4.96-1.41,9.91-2.38,14.75-2.91,1.98-.22,3.85,1.13,4.46,3.12l6.5,21.12c.86,2.78-.6,5.7-3.25,6.52l-12.02,3.7c-2.65.82-5.49-.78-6.35-3.56l-6.93-22.52c-.73-2.37.57-4.81,2.84-5.46ZM273.79,113.3c3.87-2.87,8.16-5.43,12.81-7.67,2.47-1.19,5.45.18,6.3,2.93l12.52,40.68c.86,2.78-.6,5.7-3.25,6.52l-12.02,3.7c-2.65.82-5.49-.78-6.35-3.56l-11.54-37.48c-.58-1.9,0-3.97,1.52-5.1ZM254.31,164.96l-1.26-4.1c-2.2-14.29,1.4-26.55,9.16-36.5,1-1.28,3-.87,3.49.74l10.22,33.21c.86,2.78-.6,5.7-3.25,6.52l-12.02,3.7c-2.65.82-5.49-.78-6.35-3.56ZM311.25,200.15l1.75,5.69c-12.51,3.34-24.86,9.96-32.19,21.88-1.38,2.24-4.81,1.42-5.01-1.2l-2.23-28.75c-4.37-3.2-8.25-7.33-11.54-12.56-2.05-3.27-.66-7.6,2.86-8.68l73.32-22.57c2.98-.92,5.99,1.87,5.34,5.05-3.64,17.96-37.55,22.89-32.3,41.15ZM332.4,201.55c-3.47,1.07-6.9,1.94-10.31,2.68-7.85-26.33,41.93-21.9,30.71-58.34-19.33,5.95-34.19,7.14-40.62-.63-1.76-2.13-.86-5.4,1.67-6.18l53.42-16.45c3.91-1.2,8.17.91,9.74,4.91.53,1.35,1.02,2.75,1.47,4.19,11.75,38.17-11.99,59.32-46.08,69.82Z"/>
  </g>
</svg>